<svg id="Calque_1" data-name="Calque 1" xmlns="http://www.w3.org/2000/svg" viewBox="0 0 2739.32 1870.18"><defs><style>.cls-1,.cls-7{fill:#1d1d1b;}.cls-2{fill:#8fc6ed;}.cls-3{fill:#191a33;}.cls-4{fill:#181933;}.cls-5{fill:#312783;}.cls-6{fill:#29235c;}.cls-7{font-size:75.98px;font-family:Poppins-BoldItalic, Poppins;font-weight:700;font-style:italic;letter-spacing:-0.01em;}</style></defs><title>Plan de travail 6</title><path class="cls-1" d="M966.93,881.7v36.47c.3-6,.43-12.13.43-18.32S967.23,887.67,966.93,881.7Z"/><path class="cls-2" d="M966.93,998.51V1184H789l20.69-6.43q5.37-2.08,10.61-4.42a262.61,262.61,0,0,0,23.7-11.94q64.17-36.5,99.05-101.86A284.13,284.13,0,0,0,966.93,998.51Z"/><path class="cls-3" d="M1333.48,618.49V1184H1176.27l-.11-.17-145-218.88-64.23-97v50.23q-2.17,46.46-15.51,86.89a279.27,279.27,0,0,1-18.95,44.38q-34.89,65.38-99.06,101.87-10.7,6.07-21.94,11.14c-.58.28-1.17.53-1.75.79l-2.1.91A281.58,281.58,0,0,1,739,1183.79H631.81q-71.09-11.05-124-52.54-72.19-56.55-93-153.6H584q15.25,32.1,42.11,48.93t62.17,16.84q44.84,0,74.76-26.29a111.92,111.92,0,0,0,12.26-12.61q30.47-36.46,32.36-96.56c.08-2.67.13-5.37.13-8.11s0-5.39-.13-8V618.49H966.93l209.34,320v-320Z"/><path class="cls-4" d="M631.81,1183.79H739a341,341,0,0,1-53.13,4A352.27,352.27,0,0,1,631.81,1183.79Z"/><path class="cls-3" d="M794,630.89V826.3l-1.11-2.46A126.24,126.24,0,0,0,775.26,796q-32.47-38.9-87-38.9-35.29,0-62.16,16.84T584,822.85H414.73q14.22-66.17,52.32-113.52a249.27,249.27,0,0,1,40.72-40.08Q580,612.7,685.83,612.7a332.94,332.94,0,0,1,67.66,6.65,278.82,278.82,0,0,1,39.36,11.14C793.23,630.61,793.6,630.75,794,630.89Z"/><path class="cls-3" d="M1839.23,909.37l-92,269.15-1.8,5.27H1613.86l-2.28-6.67-99.91-292.25c57.76,34.2,109,47.52,150.72,52.08l18.84,48.74,17.67-46.77C1749.57,938.81,1794.25,926.65,1839.23,909.37Z"/><path class="cls-5" d="M1659.62,929.76c-41.42-4.38-92.35-17.28-149.9-50.59l-3.34-9.79v7.84C1458,848.7,1405,805.73,1349.17,741.38v-.48c125.43,136.65,232.88,168.31,304.67,173.89Z"/><path class="cls-3" d="M1506.38,881.52v302.27H1349.17V741.38q3.09,3.55,6.17,7l.1.12a.64.64,0,0,0,.1.13,658.13,658.13,0,0,0,150.84,132.87Z"/><path class="cls-2" d="M1349.17,740.9V618.33h190.09l114.58,296.46C1582.05,909.21,1474.6,877.55,1349.17,740.9Z"/><path class="cls-5" d="M1851.88,872.35l-9.21,26.95c-45.59,18.12-90.36,31.12-141,32.24l6.39-16.93C1759.39,910.13,1804.86,893.74,1851.88,872.35Z"/><path class="cls-5" d="M2009.29,798.37v29.92c-59.08,22.28-108.86,47.34-157.21,67.19V872.27C1900.2,850.38,1950,823.27,2009.29,798.37Z"/><path class="cls-2" d="M2009.29,618.33v180c-59.32,24.9-109.09,52-157.21,73.9v-.48l-.2.56c-47,21.39-92.49,37.78-143.8,42.26L1820,618.33Z"/><path class="cls-3" d="M2009.29,838.36v345.43H1852.08V904.3C1900.78,884.65,1950.54,859.78,2009.29,838.36Z"/><path class="cls-4" d="M2184.77,992.84h-.28c-2,0-4,0-6.08.06h9.22Z"/><path class="cls-6" d="M2178.41,992.9h3.44l2.64-.06C2182.49,992.81,2180.46,992.84,2178.41,992.9Z"/><path class="cls-2" d="M2458.68,733.14c-75.75-8-171.07-9.16-276.83,11.92a878.37,878.37,0,0,0-157.21,47V618.33h235q68.17,0,115.9,24.06l2.49,1.28a182.56,182.56,0,0,1,33.64,22.38A157.09,157.09,0,0,1,2447.34,709,175.85,175.85,0,0,1,2458.68,733.14Z"/><path class="cls-5" d="M2470.72,788.51a908.54,908.54,0,0,0-166.55-14.89q-14.49-28.56-59.76-28.56h-62.56c105.76-21.08,201.08-19.92,276.83-11.92A197.56,197.56,0,0,1,2470.72,788.51Z"/><path class="cls-3" d="M2471.21,816q-1.92,46-23.47,84.29a159.79,159.79,0,0,1-36.06,43.61,194.32,194.32,0,0,1-35.32,23.77,188.25,188.25,0,0,1-22.34,10q-40.77,15.27-94.37,15.26h-68.59c-2.07-.06-4.16-.09-6.29-.06h-.28c-2,0-4,0-6.08.06h3.44v190.89H2024.64V832.92a746,746,0,0,1,157.21-36.13v71h62.56q66.57,0,66.58-61a94.07,94.07,0,0,0-1-14.46A843.57,843.57,0,0,1,2471.21,816Z"/><path class="cls-5" d="M2181.85,745.06v37.88a819.34,819.34,0,0,0-157.21,39.72v-30.6A878.37,878.37,0,0,1,2181.85,745.06Z"/><polygon class="cls-4" points="326.73 668.39 326.73 855.12 293.73 855.12 293.73 662.83 326.73 668.39"/><polygon class="cls-2" points="945.03 489.98 773.18 605.36 608.59 715.87 486.73 695.34 326.73 668.39 293.74 662.84 263.67 657.76 293.74 639.5 326.73 619.46 539.67 489.98 945.03 489.98"/><polygon class="cls-2" points="341.01 929.09 280.46 929.09 294.2 868.6 327.26 868.6 327.87 871.41 341.01 929.09"/><text class="cls-7" transform="translate(263.34 1334.16)">COMMUNICATION NUMÉRIQUE ET MANAGEMENT DE PROJET</text><path class="cls-6" d="M1662.39,937c-41.74-4.56-93-17.88-150.72-52.08l-2-5.7c57.55,33.31,108.48,46.21,149.9,50.59Z"/><path class="cls-6" d="M1842.67,899.3l-3.44,10.07c-45,17.28-89.66,29.44-140.33,29.55l2.79-7.38C1752.31,930.42,1797.08,917.42,1842.67,899.3Z"/><path class="cls-6" d="M2009.29,828.29v10.07c-58.75,21.42-108.51,46.29-157.21,65.94v-8.82C1900.43,875.63,1950.21,850.57,2009.29,828.29Z"/><path class="cls-6" d="M2471.4,806.82c0,3.08-.07,6.13-.19,9.15a843.57,843.57,0,0,0-161.27-23.61,61.9,61.9,0,0,0-5.77-18.74,908.54,908.54,0,0,1,166.55,14.89Q2471.4,797.48,2471.4,806.82Z"/><path class="cls-6" d="M2181.85,782.94v13.85a746,746,0,0,0-157.21,36.13V822.66A819.34,819.34,0,0,1,2181.85,782.94Z"/><path class="cls-6" d="M1506.38,877.22v4.3a658.13,658.13,0,0,1-150.84-132.87C1409.07,809,1459.86,849.79,1506.38,877.22Z"/></svg>